<svg xmlns="http://www.w3.org/2000/svg" width="12" height="15" fill="none"><path fill="#fff" d="M6 14.777a5.92 5.92 0 0 1-2.338-.462 6.1 6.1 0 0 1-3.2-3.206A5.903 5.903 0 0 1 0 8.777c0-.828.154-1.603.463-2.326a6.018 6.018 0 0 1 3.2-3.205A5.854 5.854 0 0 1 6 2.777v1.518c-.621 0-1.203.117-1.746.351a4.49 4.49 0 0 0-1.424.961c-.41.41-.732.887-.967 1.43a4.38 4.38 0 0 0-.345 1.74 4.422 4.422 0 0 0 1.306 3.17c.41.41.887.733 1.43.967.543.23 1.125.346 1.746.346s1.201-.115 1.74-.346a4.555 4.555 0 0 0 2.397-2.396c.23-.543.345-1.123.345-1.74H12c0 .827-.156 1.605-.469 2.331a6.081 6.081 0 0 1-3.205 3.205A5.862 5.862 0 0 1 6 14.777ZM5.66 7.29V0l3.668 3.645L5.66 7.289Z"/></svg>